<svg width="20" height="20" viewBox="0 0 20 20" fill="none" xmlns="http://www.w3.org/2000/svg">
<path d="M2.8647 10.2544C2.76427 10.0995 2.76427 9.90046 2.8647 9.74561C4.37957 7.41004 7.00884 5.86434 9.99994 5.86426C12.9911 5.86426 15.6204 7.40999 17.1352 9.74561C17.2356 9.90046 17.2356 10.0995 17.1352 10.2544C15.6203 12.59 12.991 14.1357 9.99994 14.1357C7.00875 14.1357 4.37953 12.59 2.8647 10.2544ZM9.99994 4.36426C6.30192 4.36435 3.07326 6.37204 1.34313 9.35663C1.11235 9.75473 1.11235 10.2453 1.34312 10.6434C3.07322 13.628 6.30183 15.6357 9.99994 15.6357C13.698 15.6357 16.9266 13.628 18.6568 10.6434C18.8875 10.2453 18.8875 9.75473 18.6568 9.35662C16.9267 6.37198 13.6981 4.36426 9.99994 4.36426Z" fill="black"/>
<path fill-rule="evenodd" clip-rule="evenodd" d="M9.99994 7C11.6568 7 12.9999 8.34315 12.9999 10C12.9999 11.6569 11.6568 13 9.99994 13C8.34309 13 6.99994 11.6569 6.99994 10C6.99994 8.34315 8.34309 7 9.99994 7ZM10.0009 8.5C9.17249 8.5 8.50092 9.17157 8.50092 10C8.50092 10.8284 9.17249 11.5 10.0009 11.5C10.8293 11.5 11.5009 10.8284 11.5009 10C11.5009 9.17157 10.8293 8.5 10.0009 8.5Z" fill="black"/>
</svg>
