<svg width="21" height="20" viewBox="0 0 21 20" fill="none" xmlns="http://www.w3.org/2000/svg">
<path d="M4.5144 3C2.85755 3 1.5144 4.34315 1.5144 6V14C1.5144 15.6569 2.85755 17 4.5144 17H16.5144C18.1713 17 19.5144 15.6569 19.5144 14V6C19.5144 4.34315 18.1713 3 16.5144 3H4.5144ZM3.0144 6C3.0144 5.17157 3.68598 4.5 4.5144 4.5H6.5144V15.5H4.5144C3.68598 15.5 3.0144 14.8284 3.0144 14V6ZM8.0144 4.5H16.5144C17.3428 4.5 18.0144 5.17157 18.0144 6V14C18.0144 14.8284 17.3428 15.5 16.5144 15.5H8.0144V4.5Z" fill="black"/>
</svg>
