<svg width="20" height="20" viewBox="0 0 20 20" fill="none" xmlns="http://www.w3.org/2000/svg">
<path d="M2.84903 2.84906C5.19218 0.505919 8.99117 0.505919 11.3343 2.84906C13.474 4.98873 13.6598 8.34238 11.8917 10.6929L18.66 17.4612C18.9911 17.7922 18.9911 18.329 18.66 18.66C18.3289 18.9911 17.7922 18.9911 17.4611 18.66L10.6929 11.8917C8.34237 13.6598 4.98871 13.474 2.84903 11.3343C0.505888 8.9912 0.505888 5.19221 2.84903 2.84906ZM3.90969 3.90972C2.15233 5.66708 2.15233 8.51633 3.90969 10.2737C5.66705 12.031 8.5163 12.031 10.2737 10.2737C12.031 8.51633 12.031 5.66708 10.2737 3.90972C8.5163 2.15237 5.66705 2.15237 3.90969 3.90972Z" fill="black"/>
</svg>
