<svg width="20" height="20" viewBox="0 0 20 20" fill="none" xmlns="http://www.w3.org/2000/svg">
<path d="M6.75806 10C6.75806 10.8284 6.08648 11.5 5.25806 11.5C4.42963 11.5 3.75806 10.8284 3.75806 10C3.75806 9.17157 4.42963 8.5 5.25806 8.5C6.08648 8.5 6.75806 9.17157 6.75806 10Z" fill="black"/>
<path d="M11.5 10C11.5 10.8284 10.8284 11.5 10 11.5C9.17157 11.5 8.5 10.8284 8.5 10C8.5 9.17157 9.17157 8.5 10 8.5C10.8284 8.5 11.5 9.17157 11.5 10Z" fill="black"/>
<path d="M16.2419 10C16.2419 10.8284 15.5704 11.5 14.7419 11.5C13.9135 11.5 13.2419 10.8284 13.2419 10C13.2419 9.17157 13.9135 8.5 14.7419 8.5C15.5704 8.5 16.2419 9.17157 16.2419 10Z" fill="black"/>
</svg>
