<svg width="20" height="20" viewBox="0 0 20 20" fill="none" xmlns="http://www.w3.org/2000/svg">
<path d="M16.5 5.5L16.107 16.111C16.0473 17.7236 14.7227 19 13.1091 19H6.89095C5.2773 19 3.95273 17.7236 3.893 16.111L3.5 5.5H5L5.4401 16.0624C5.47358 16.8659 6.13466 17.5 6.9388 17.5H13.0612C13.8653 17.5 14.5264 16.8659 14.5599 16.0624L15 5.5H16.5Z" fill="black"/>
<path d="M2 4.75C2 4.33579 2.33579 4 2.75 4H17.25C17.6642 4 18 4.33579 18 4.75C18 5.16421 17.6642 5.5 17.25 5.5H2.75C2.33579 5.5 2 5.16421 2 4.75Z" fill="black"/>
<path d="M8.4331 1C7.3613 1 6.37092 1.5718 5.83502 2.5L4.70105 4.4641L6.00009 5.2141L7.19825 3.13882C7.4662 2.67472 7.96139 2.38882 8.49729 2.38882H11.5028C12.0387 2.38882 12.5339 2.67472 12.8019 3.13882L14 5.2141L15.2991 4.4641L14.1651 2.5C13.6292 1.5718 12.6388 1 11.567 1H8.4331Z" fill="black"/>
<rect x="9.40002" y="7" width="1.2" height="9" rx="0.6" fill="black"/>
<rect x="7.04211" y="7" width="1.2" height="9" rx="0.6" fill="black"/>
<rect x="11.7576" y="7" width="1.2" height="9" rx="0.6" fill="black"/>
</svg>
