<svg width="20" height="20" viewBox="0 0 20 20" fill="none" xmlns="http://www.w3.org/2000/svg">
<path fill-rule="evenodd" clip-rule="evenodd" d="M19 16V5.5C19 3.84315 17.6569 2.5 16 2.5H15.5V1.75C15.5 1.33579 15.1642 1 14.75 1C14.3358 1 14 1.33579 14 1.75V2.5H6V1.75C6 1.33579 5.66421 1 5.25 1C4.83579 1 4.5 1.33579 4.5 1.75V2.5H4C2.34315 2.5 1 3.84315 1 5.5V16C1 17.6569 2.34315 19 4 19H16C17.6569 19 19 17.6569 19 16ZM2.5 6.5V5.5C2.5 4.67157 3.17157 4 4 4H4.5V4.75C4.5 5.16421 4.83579 5.5 5.25 5.5C5.66421 5.5 6 5.16421 6 4.75V4H14V4.75C14 5.16421 14.3358 5.5 14.75 5.5C15.1642 5.5 15.5 5.16421 15.5 4.75V4H16C16.8284 4 17.5 4.67157 17.5 5.5V6.5H2.5ZM2.5 16V8H17.5V16C17.5 16.8284 16.8284 17.5 16 17.5H4C3.17157 17.5 2.5 16.8284 2.5 16Z" fill="black"/>
<path d="M3.5 9.75C3.5 9.33579 3.83579 9 4.25 9H15.75C16.1642 9 16.5 9.33579 16.5 9.75C16.5 10.1642 16.1642 10.5 15.75 10.5H4.25C3.83579 10.5 3.5 10.1642 3.5 9.75Z" fill="black"/>
<path d="M3.5 12.75C3.5 12.3358 3.83579 12 4.25 12H15.75C16.1642 12 16.5 12.3358 16.5 12.75C16.5 13.1642 16.1642 13.5 15.75 13.5H4.25C3.83579 13.5 3.5 13.1642 3.5 12.75Z" fill="black"/>
<path d="M3.5 15.75C3.5 15.3358 3.83579 15 4.25 15H11.75C12.1642 15 12.5 15.3358 12.5 15.75C12.5 16.1642 12.1642 16.5 11.75 16.5H4.25C3.83579 16.5 3.5 16.1642 3.5 15.75Z" fill="black"/>
</svg>
