<svg width="20" height="20" viewBox="0 0 20 20" fill="none" xmlns="http://www.w3.org/2000/svg">
<path fill-rule="evenodd" clip-rule="evenodd" d="M4.69672 3.63604C4.40382 3.34315 3.92895 3.34315 3.63606 3.63604C3.34316 3.92893 3.34316 4.40381 3.63606 4.6967L8.93936 10L3.63606 15.3033C3.34316 15.5962 3.34316 16.0711 3.63606 16.364C3.92895 16.6569 4.40382 16.6569 4.69672 16.364L10 11.0607L15.3033 16.364C15.5962 16.6569 16.0711 16.6569 16.364 16.364C16.6569 16.0711 16.6569 15.5962 16.364 15.3033L11.0607 10L16.364 4.6967C16.6569 4.40381 16.6569 3.92893 16.364 3.63604C16.0711 3.34315 15.5962 3.34315 15.3033 3.63604L10 8.93934L4.69672 3.63604Z" fill="black"/>
</svg>
