<svg width="21" height="20" viewBox="0 0 21 20" fill="none" xmlns="http://www.w3.org/2000/svg">
<path d="M7.27246 10C7.27246 10.8284 6.60089 11.5 5.77246 11.5C4.94403 11.5 4.27246 10.8284 4.27246 10C4.27246 9.17157 4.94403 8.5 5.77246 8.5C6.60089 8.5 7.27246 9.17157 7.27246 10Z" fill="black"/>
<path d="M12.0144 10C12.0144 10.8284 11.3428 11.5 10.5144 11.5C9.68598 11.5 9.0144 10.8284 9.0144 10C9.0144 9.17157 9.68598 8.5 10.5144 8.5C11.3428 8.5 12.0144 9.17157 12.0144 10Z" fill="black"/>
<path d="M16.7563 10C16.7563 10.8284 16.0848 11.5 15.2563 11.5C14.4279 11.5 13.7563 10.8284 13.7563 10C13.7563 9.17157 14.4279 8.5 15.2563 8.5C16.0848 8.5 16.7563 9.17157 16.7563 10Z" fill="black"/>
</svg>
