<svg width="21" height="20" viewBox="0 0 21 20" fill="none" xmlns="http://www.w3.org/2000/svg">
<rect width="18" height="18" transform="translate(1.5144 1)" fill="white"/>
<path d="M17.0144 5.5L16.6214 16.111C16.5617 17.7236 15.2371 19 13.6235 19H7.40535C5.7917 19 4.46713 17.7236 4.40741 16.111L4.0144 5.5H5.5144L5.95451 16.0624C5.98798 16.8659 6.64907 17.5 7.45321 17.5H13.5756C14.3797 17.5 15.0408 16.8659 15.0743 16.0624L15.5144 5.5H17.0144Z" fill="black"/>
<path d="M2.5144 4.75C2.5144 4.33579 2.85019 4 3.2644 4H17.7644C18.1786 4 18.5144 4.33579 18.5144 4.75C18.5144 5.16421 18.1786 5.5 17.7644 5.5H3.2644C2.85019 5.5 2.5144 5.16421 2.5144 4.75Z" fill="black"/>
<path d="M8.9475 1C7.87571 1 6.88533 1.5718 6.34943 2.5L5.21545 4.4641L6.51449 5.2141L7.71265 3.13882C7.9806 2.67472 8.47579 2.38882 9.01169 2.38882H12.0172C12.5531 2.38882 13.0483 2.67472 13.3163 3.13882L14.5144 5.2141L15.8135 4.4641L14.6795 2.5C14.1436 1.5718 13.1532 1 12.0814 1H8.9475Z" fill="black"/>
<rect x="9.91443" y="7" width="1.2" height="9" rx="0.6" fill="black"/>
<rect x="7.55652" y="7" width="1.2" height="9" rx="0.6" fill="black"/>
<rect x="12.272" y="7" width="1.2" height="9" rx="0.6" fill="black"/>
</svg>
