<svg width="21" height="20" viewBox="0 0 21 20" fill="none" xmlns="http://www.w3.org/2000/svg">
<path fill-rule="evenodd" clip-rule="evenodd" d="M19.5144 3L18.0144 3V1.75C18.0144 1.33579 17.6786 1 17.2644 1C16.8502 1 16.5144 1.33579 16.5144 1.75V3L4.5144 3V1.75C4.5144 1.33579 4.17862 1 3.7644 1C3.35019 1 3.0144 1.33579 3.0144 1.75V3L1.5144 3V16C1.5144 17.6569 2.85755 19 4.5144 19H16.5144C18.1713 19 19.5144 17.6569 19.5144 16V3ZM3.0144 8H18.0144V16C18.0144 16.8284 17.3428 17.5 16.5144 17.5H4.5144C3.68598 17.5 3.0144 16.8284 3.0144 16V8Z" fill="black"/>
</svg>
