<svg width="21" height="20" viewBox="0 0 21 20" fill="none" xmlns="http://www.w3.org/2000/svg">
<path d="M16.5144 1C18.1713 1 19.5144 2.34315 19.5144 4V16C19.5144 17.6569 18.1713 19 16.5144 19H4.5144C2.85755 19 1.5144 17.6569 1.5144 16V4C1.5144 2.34315 2.85755 1 4.5144 1H16.5144ZM4.5144 2.5C3.68598 2.5 3.0144 3.17157 3.0144 4V16C3.0144 16.8284 3.68598 17.5 4.5144 17.5H16.5144C17.3428 17.5 18.0144 16.8284 18.0144 16V4C18.0144 3.17157 17.3428 2.5 16.5144 2.5H4.5144Z" fill="black"/>
<path d="M15.8181 6.99512L8.74683 14.0654L5.21069 10.5303L6.27222 9.46973L8.74683 11.9443L14.7566 5.93457L15.8181 6.99512Z" fill="black"/>
</svg>
