<svg width="20" height="20" viewBox="0 0 20 20" fill="none" xmlns="http://www.w3.org/2000/svg">
<path d="M16 1C17.6569 1 19 2.34315 19 4V16C19 17.6569 17.6569 19 16 19H4C2.34315 19 1 17.6569 1 16V4C1 2.34315 2.34315 1 4 1H16ZM4 2.5C3.17157 2.5 2.5 3.17157 2.5 4V16C2.5 16.8284 3.17157 17.5 4 17.5H16C16.8284 17.5 17.5 16.8284 17.5 16V4C17.5 3.17157 16.8284 2.5 16 2.5H4Z" fill="black"/>
<path d="M15.3037 6.99512L8.23242 14.0654L4.69629 10.5303L5.75781 9.46973L8.23242 11.9443L14.2422 5.93457L15.3037 6.99512Z" fill="black"/>
</svg>
