<svg width="20" height="20" viewBox="0 0 20 20" fill="none" xmlns="http://www.w3.org/2000/svg">
<path d="M16 1C17.6569 1 19 2.34315 19 4V16C19 17.6569 17.6569 19 16 19H4C2.34315 19 1 17.6569 1 16V4C1 2.34315 2.34315 1 4 1H16ZM4 2.5C3.17157 2.5 2.5 3.17157 2.5 4V16C2.5 16.8284 3.17157 17.5 4 17.5H16C16.8284 17.5 17.5 16.8284 17.5 16V4C17.5 3.17157 16.8284 2.5 16 2.5H4Z" fill="black"/>
<path d="M13.7119 6.46484C14.0048 6.17197 14.4796 6.17201 14.7725 6.46484C15.0654 6.75774 15.0654 7.2325 14.7725 7.52539L8.58594 13.7119C8.39068 13.9072 8.07417 13.9072 7.87891 13.7119L5.22656 11.0605C4.93405 10.7677 4.93401 10.2928 5.22656 10C5.51946 9.70711 5.99519 9.70711 6.28809 10L8.23242 11.9443L13.7119 6.46484Z" fill="black"/>
</svg>
