<svg width="21" height="20" viewBox="0 0 21 20" fill="none" xmlns="http://www.w3.org/2000/svg">
<path fill-rule="evenodd" clip-rule="evenodd" d="M10.5847 7.07031C12.2415 7.07031 13.5846 8.41355 13.5847 10.0703C13.5847 11.7272 12.2416 13.0703 10.5847 13.0703C8.92795 13.0702 7.58472 11.7271 7.58472 10.0703C7.58482 8.41361 8.92802 7.07042 10.5847 7.07031ZM10.5847 8.57031C9.75645 8.57042 9.08482 9.24204 9.08472 10.0703C9.08472 10.8987 9.75638 11.5702 10.5847 11.5703C11.4131 11.5703 12.0847 10.8987 12.0847 10.0703C12.0846 9.24198 11.4131 8.57031 10.5847 8.57031Z" fill="black"/>
<path fill-rule="evenodd" clip-rule="evenodd" d="M13.0759 4.55859C13.0693 4.55552 13.062 4.55283 13.0554 4.5498C13.3685 4.69417 13.6678 4.86372 13.949 5.05762L16.3541 3.93816C16.824 3.71948 17.383 3.89598 17.6422 4.3448L18.9759 6.65512C19.2353 7.10439 19.108 7.67738 18.6829 7.97463L16.5222 9.48535C16.551 9.82409 16.5509 10.1739 16.5222 10.5127L18.6837 12.0262C19.1085 12.3236 19.2354 12.8963 18.9762 13.3453L17.6425 15.6555C17.3833 16.1046 16.8237 16.281 16.3538 16.0618L13.95 14.9404C13.6741 15.1309 13.3807 15.2977 13.074 15.4404L12.8438 18.0866C12.7989 18.6034 12.3663 19 11.8476 19H9.18064C8.66217 19 8.22969 18.6037 8.18445 18.0873L7.94995 15.4102C7.65852 15.27 7.38089 15.1054 7.11792 14.9219L4.67586 16.0609C4.20597 16.2801 3.64651 16.1038 3.3872 15.6548L2.05264 13.3441C1.79337 12.8951 1.92014 12.3225 2.34465 12.025L4.56519 10.4688C4.54087 10.1541 4.54549 9.84261 4.56616 9.52832L2.34542 7.97387C1.92054 7.67647 1.79353 7.1036 2.05291 6.6545L3.38731 4.34404C3.64657 3.89514 4.20589 3.71879 4.67575 3.9378L7.11792 5.07617C7.10617 5.08437 7.09444 5.09328 7.08276 5.10156C7.37071 4.8976 7.67737 4.71778 7.99976 4.56641C7.9834 4.57408 7.96623 4.58106 7.94995 4.58887L8.18518 1.91245C8.23057 1.39609 8.66299 1 9.18134 1H11.8488C12.3674 1 12.8 1.39644 12.8451 1.91306L13.0759 4.55859ZM9.36304 5.64844C8.57873 5.85549 7.87796 6.26888 7.323 6.82715L4.43042 5.47852L3.55737 6.99023L4.85913 7.90234L4.90991 7.9375C4.90378 7.95426 4.89832 7.97145 4.89233 7.98828C4.89828 7.97158 4.9048 7.95511 4.91089 7.93848L6.17163 8.82129C6.0699 9.19703 6.01538 9.59208 6.01538 10C6.01538 10.4073 6.07022 10.8016 6.17163 11.1768L3.5564 13.0088L4.42944 14.5205L7.323 13.1709C7.87784 13.7294 8.57776 14.1433 9.36206 14.3506L9.64136 17.5303H11.3875L11.6648 14.3506C12.4497 14.1436 13.1505 13.7305 13.7058 13.1719L16.5994 14.5215L17.4724 13.0098L14.8572 11.1777C14.9588 10.8022 15.0154 10.4077 15.0154 10C15.0154 9.59232 14.9588 9.19781 14.8572 8.82227L17.3123 7.10352L17.4734 6.99121L16.6003 5.47949L13.7058 6.82715C13.1505 6.26873 12.4495 5.85532 11.6648 5.64844L11.3884 2.46973H9.64233L9.36304 5.64844Z" fill="black"/>
</svg>
