<svg width="20" height="20" viewBox="0 0 20 20" fill="none" xmlns="http://www.w3.org/2000/svg">
<path d="M1 5.05001C1 4.63579 1.33579 4.30001 1.75 4.30001H18.25C18.6642 4.30001 19 4.63579 19 5.05001C19 5.46422 18.6642 5.80001 18.25 5.80001H1.75C1.33579 5.80001 1 5.46422 1 5.05001Z" fill="black"/>
<path d="M1 8.35001C1 7.9358 1.33579 7.60001 1.75 7.60001H18.25C18.6642 7.60001 19 7.9358 19 8.35001C19 8.76422 18.6642 9.10001 18.25 9.10001H1.75C1.33579 9.10001 1 8.76422 1 8.35001Z" fill="black"/>
<path d="M1 11.65C1 11.2358 1.33579 10.9 1.75 10.9H18.25C18.6642 10.9 19 11.2358 19 11.65C19 12.0642 18.6642 12.4 18.25 12.4H1.75C1.33579 12.4 1 12.0642 1 11.65Z" fill="black"/>
<path d="M1 14.95C1 14.5358 1.33579 14.2 1.75 14.2H18.25C18.6642 14.2 19 14.5358 19 14.95C19 15.3642 18.6642 15.7 18.25 15.7H1.75C1.33579 15.7 1 15.3642 1 14.95Z" fill="black"/>
<path d="M19 1.75C19 2.16421 18.6642 2.5 18.25 2.5H4.75C4.33578 2.5 4 2.16421 4 1.75C4 1.33579 4.33578 1 4.75 1H18.25C18.6642 1 19 1.33579 19 1.75Z" fill="black"/>
<path d="M1 18.25C1 17.8358 1.33579 17.5 1.75 17.5H15.25C15.6642 17.5 16 17.8358 16 18.25C16 18.6642 15.6642 19 15.25 19H1.75C1.33579 19 1 18.6642 1 18.25Z" fill="black"/>
</svg>
