<svg width="21" height="20" viewBox="0 0 21 20" fill="none" xmlns="http://www.w3.org/2000/svg">
<path d="M3.36344 2.84906C5.70658 0.505919 9.50557 0.505919 11.8487 2.84906C13.9884 4.98873 14.1742 8.34238 12.4061 10.6929L19.1744 17.4612C19.5055 17.7922 19.5055 18.329 19.1744 18.66C18.8434 18.9911 18.3066 18.9911 17.9756 18.66L11.2073 11.8917C8.85678 13.6598 5.50312 13.474 3.36344 11.3343C1.02029 8.9912 1.02029 5.19221 3.36344 2.84906ZM4.4241 3.90972C2.66674 5.66708 2.66674 8.51633 4.4241 10.2737C6.18146 12.031 9.0307 12.031 10.7881 10.2737C12.5454 8.51633 12.5454 5.66708 10.7881 3.90972C9.0307 2.15237 6.18146 2.15237 4.4241 3.90972Z" fill="black"/>
</svg>
