<svg width="21" height="20" viewBox="0 0 21 20" fill="none" xmlns="http://www.w3.org/2000/svg">
<path d="M16.893 1.5L10.5291 7.86396L12.6504 9.98528L19.0144 3.62132L16.893 1.5Z" fill="black"/>
<path d="M9.46835 8.92462L11.5897 11.0459L9.11479 11.3995L9.46835 8.92462Z" fill="black"/>
<path d="M10.0144 2.5V4H4.91479C4.14171 4 3.51458 4.62637 3.5144 5.39941V15.5C3.51454 16.3283 4.18606 17 5.0144 17H15.0144C15.8427 17 16.5143 16.3283 16.5144 15.5V10.5H18.0144V15.5C18.0143 17.1567 16.6712 18.5 15.0144 18.5H5.0144C3.35763 18.5 2.01454 17.1567 2.0144 15.5V5.5C2.0144 3.84314 3.35755 2.5 5.0144 2.5H10.0144Z" fill="black"/>
</svg>
