<svg width="20" height="20" viewBox="0 0 20 20" fill="none" xmlns="http://www.w3.org/2000/svg">
<path d="M17.4393 2.56066C16.8535 1.97487 15.9038 1.97487 15.318 2.56066L10.0147 7.86396L12.136 9.98528L17.4393 4.68198C18.0251 4.09619 18.0251 3.14645 17.4393 2.56066Z" fill="black"/>
<path d="M8.95394 8.92462L11.0753 11.0459L8.60039 11.3995L8.95394 8.92462Z" fill="black"/>
<path d="M8.75 2.5C9.16421 2.5 9.5 2.83578 9.5 3.25C9.5 3.66421 9.16421 4 8.75 4H4.40039C3.6273 4 3.00018 4.62637 3 5.39941V15.5C3.00014 16.3283 3.67166 17 4.5 17H14.5C15.3283 17 15.9999 16.3283 16 15.5V11.25C16 10.8358 16.3358 10.5 16.75 10.5C17.1642 10.5 17.5 10.8358 17.5 11.25V15.5C17.4999 17.1567 16.1568 18.5 14.5 18.5H4.5C2.84323 18.5 1.50014 17.1567 1.5 15.5V5.5C1.5 3.84314 2.84315 2.5 4.5 2.5H8.75Z" fill="black"/>
</svg>
