<svg width="21" height="20" viewBox="0 0 21 20" fill="none" xmlns="http://www.w3.org/2000/svg">
<path d="M8.07544 1.4366C7.20137 1.22299 6.28491 1.00001 4.5144 1.00001H3.0144V18.25C3.0144 18.6642 3.35019 19 3.7644 19C4.17862 19 4.5144 18.6642 4.5144 18.25L4.5144 10.8444C6.10936 10.8444 6.88916 11.035 7.69739 11.2325L7.71167 11.236C8.5857 11.4496 9.49399 11.6696 11.2644 11.6696C13.0348 11.6696 13.9431 11.4496 14.8171 11.236L14.8314 11.2325C15.6396 11.035 16.4194 10.8444 18.0144 10.8444V1C16.2439 1 15.3357 1.22096 14.4617 1.43457C13.6513 1.63261 12.8633 1.8252 11.2644 1.8252C9.66552 1.8252 8.88581 1.63465 8.07544 1.4366ZM4.5144 2.5C6.10936 2.5 6.88916 2.69058 7.69739 2.88811L7.71167 2.8916C8.5857 3.1052 9.49399 3.3252 11.2644 3.3252C13.0348 3.3252 13.9431 3.1052 14.8171 2.8916L14.8314 2.88811C15.3353 2.76496 15.8282 2.64451 16.5144 2.57126V9.40832C15.6486 9.48935 15.0392 9.63785 14.4534 9.78102C13.643 9.97906 12.8633 10.1696 11.2644 10.1696C9.66552 10.1696 8.8775 9.97703 8.06714 9.77899C7.19306 9.56538 6.28491 9.34441 4.5144 9.34441L4.5144 2.5Z" fill="#020202"/>
</svg>
