<svg width="20" height="20" viewBox="0 0 20 20" fill="none" xmlns="http://www.w3.org/2000/svg">
<path d="M7.56104 1.4366C6.68696 1.22299 5.7705 1.00001 4 1.00001H2.5V18.25C2.5 18.6642 2.83579 19 3.25 19C3.66421 19 4 18.6642 4 18.25L4 10.8444C5.59495 10.8444 6.37475 11.035 7.18299 11.2325L7.19726 11.236C8.0713 11.4496 8.97958 11.6696 10.75 11.6696C12.5204 11.6696 13.4287 11.4496 14.3027 11.236L14.317 11.2325C15.1252 11.035 15.905 10.8444 17.5 10.8444V1C15.7295 1 14.8213 1.22096 13.9473 1.43457C13.1369 1.63261 12.3489 1.8252 10.75 1.8252C9.15111 1.8252 8.37141 1.63465 7.56104 1.4366ZM4 2.5C5.59496 2.5 6.37476 2.69058 7.18299 2.88811L7.19726 2.8916C8.0713 3.1052 8.97958 3.3252 10.75 3.3252C12.5204 3.3252 13.4287 3.1052 14.3027 2.8916L14.317 2.88811C14.8209 2.76496 15.3138 2.64451 16 2.57126V9.40832C15.1342 9.48935 14.5248 9.63785 13.939 9.78102C13.1286 9.97906 12.3489 10.1696 10.75 10.1696C9.15112 10.1696 8.3631 9.97703 7.55273 9.77899C6.67866 9.56538 5.7705 9.34441 4 9.34441L4 2.5Z" fill="#020202"/>
</svg>
