<svg width="20" height="20" viewBox="0 0 20 20" fill="none" xmlns="http://www.w3.org/2000/svg">
<path d="M6.98633 4.48242C7.40047 4.48249 7.73631 4.81827 7.73633 5.23242C7.73633 5.64659 7.40048 5.98235 6.98633 5.98242H5.83691C5.20632 5.98242 4.64341 6.37716 4.42773 6.96973L2.5957 12H6.26758C6.99451 12.0001 7.63115 12.4883 7.81934 13.1904C7.91341 13.5415 8.23123 13.7861 8.59473 13.7861H11.4053C11.7688 13.7861 12.0866 13.5415 12.1807 13.1904C12.3689 12.4883 13.0055 12.0001 13.7324 12H17.4043L15.5723 6.96973C15.3566 6.37716 14.7937 5.98242 14.1631 5.98242H13.0137C12.5995 5.98235 12.2637 5.64659 12.2637 5.23242C12.2637 4.81827 12.5995 4.48249 13.0137 4.48242H14.1631C15.4242 4.48242 16.551 5.27106 16.9824 6.45605L19 12V16C19 17.6569 17.6569 19 16 19H4C2.34315 19 1 17.6569 1 16V12L3.01758 6.45605C3.449 5.27106 4.57581 4.48242 5.83691 4.48242H6.98633ZM2.5 16C2.5 16.8284 3.17157 17.5 4 17.5H16C16.8284 17.5 17.5 16.8284 17.5 16V13.5H14.2676C13.904 13.5 13.5853 13.7445 13.4912 14.0957C13.3029 14.7978 12.6664 15.2861 11.9395 15.2861H8.06055C7.33361 15.2861 6.69712 14.7978 6.50879 14.0957C6.4147 13.7445 6.09597 13.5 5.73242 13.5H2.5V16ZM10 1C10.4142 1 10.75 1.33579 10.75 1.75V9.12891L11.9443 7.93457C12.2372 7.64168 12.712 7.64168 13.0049 7.93457C13.2978 8.22746 13.2978 8.70222 13.0049 8.99512L10.707 11.293C10.3165 11.6834 9.68346 11.6834 9.29297 11.293L6.99512 8.99512C6.70224 8.70225 6.70229 8.22747 6.99512 7.93457C7.28801 7.64168 7.76277 7.64168 8.05566 7.93457L9.25 9.12891V1.75C9.25 1.33579 9.58579 1 10 1Z" fill="black"/>
</svg>
