<svg width="21" height="20" viewBox="0 0 21 20" fill="none" xmlns="http://www.w3.org/2000/svg">
<path d="M14.5144 16.5C16.0008 16.5 17.2342 17.5813 17.4724 19H15.9265C15.7203 18.418 15.1671 18 14.5144 18H6.5144C5.86169 18 5.30851 18.418 5.10229 19H3.5564C3.79459 17.5813 5.02804 16.5 6.5144 16.5H14.5144Z" fill="black"/>
<path fill-rule="evenodd" clip-rule="evenodd" d="M14.5144 5C16.1712 5 17.5142 6.34329 17.5144 8V12C17.5144 13.6569 16.1713 15 14.5144 15H6.5144C4.85755 15 3.5144 13.6569 3.5144 12V8C3.51457 6.34329 4.85765 5 6.5144 5H14.5144ZM6.5144 6.5C5.68608 6.5 5.01457 7.17171 5.0144 8V12C5.0144 12.8284 5.68598 13.5 6.5144 13.5H14.5144C15.3428 13.5 16.0144 12.8284 16.0144 12V8C16.0142 7.17171 15.3427 6.5 14.5144 6.5H6.5144Z" fill="black"/>
<path d="M17.4724 1C17.2345 2.41896 16.001 3.5 14.5144 3.5H6.5144C5.02783 3.5 3.79435 2.41896 3.5564 1H5.10132C5.3073 1.58248 5.86138 2 6.5144 2H14.5144C15.1674 2 15.7215 1.58248 15.9275 1H17.4724Z" fill="black"/>
</svg>
