<svg width="21" height="20" viewBox="0 0 21 20" fill="none" xmlns="http://www.w3.org/2000/svg">
<path d="M16.5144 4C18.171 4.00007 19.5142 5.3434 19.5144 7V13C19.5144 14.6568 18.1712 15.9999 16.5144 16H10.5144C8.85755 16 7.5144 14.6569 7.5144 13H9.0144C9.0144 13.8284 9.68598 14.5 10.5144 14.5H16.5144C17.3428 14.4999 18.0144 13.8284 18.0144 13V7C18.0142 6.17182 17.3426 5.50007 16.5144 5.5H10.5144C9.68613 5.5 9.01465 6.17178 9.0144 7H7.5144C7.51465 5.34336 8.8577 4 10.5144 4H16.5144Z" fill="black"/>
<path d="M11.0144 13L16.0144 10L11.0144 7V9.25H2.2644C1.85019 9.25 1.5144 9.58579 1.5144 10C1.5144 10.4142 1.85019 10.75 2.2644 10.75H11.0144V13Z" fill="black"/>
</svg>
