<svg width="21" height="20" viewBox="0 0 21 20" fill="none" xmlns="http://www.w3.org/2000/svg">
<path fill-rule="evenodd" clip-rule="evenodd" d="M4.5144 1C6.17126 1 7.5144 2.34315 7.5144 4C7.5144 5.39752 6.55782 6.56799 5.2644 6.90137V12.75C5.26441 14.1307 6.38369 15.25 7.7644 15.25H13.6121C13.9453 13.9565 15.1168 13 16.5144 13C18.1713 13 19.5144 14.3431 19.5144 16C19.5144 17.6569 18.1713 19 16.5144 19C15.1168 19 13.9453 18.0435 13.6121 16.75H7.7644C5.55527 16.75 3.76441 14.9591 3.7644 12.75V6.90137C2.47099 6.56799 1.5144 5.39752 1.5144 4C1.5144 2.34315 2.85755 1 4.5144 1ZM16.5144 14.501C15.6865 14.501 15.0154 15.1721 15.0154 16C15.0154 16.828 15.6865 17.499 16.5144 17.499C17.3423 17.499 18.0134 16.8279 18.0134 16C18.0134 15.1721 17.3423 14.501 16.5144 14.501ZM4.5144 2.50098C3.68646 2.50099 3.0154 3.17205 3.01538 4C3.01538 4.82796 3.68645 5.49901 4.5144 5.49902C5.34238 5.49902 6.01343 4.82797 6.01343 4C6.01341 3.17204 5.34237 2.50098 4.5144 2.50098Z" fill="black"/>
</svg>
