<svg width="18" height="18" viewBox="0 0 18 18" fill="none" xmlns="http://www.w3.org/2000/svg">
<path fill-rule="evenodd" clip-rule="evenodd" d="M5.60962 13.5L11.6028 13.5L11.2804 17.184C11.242 17.6227 11.5877 18 12.0281 18V18C12.4172 18 12.7418 17.7026 12.7758 17.3149L13.1096 13.5H17.25C17.6642 13.5 18 13.1642 18 12.75V12.75C18 12.3358 17.6642 12 17.25 12H13.2409L13.766 6H17.25C17.6642 6 18 5.66421 18 5.25V5.25C18 4.83579 17.6642 4.5 17.25 4.5H13.8972L14.2196 0.815981C14.258 0.377318 13.9123 0 13.4719 0V0C13.0828 0 12.7582 0.297443 12.7242 0.685118L12.3904 4.5H6.39722L6.71961 0.815981C6.758 0.377318 6.41226 0 5.97192 0V0C5.58276 0 5.25815 0.297443 5.22422 0.685118L4.89038 4.5L0.75 4.5C0.335786 4.5 0 4.83579 0 5.25V5.25C0 5.66421 0.335787 6 0.75 6L4.75911 6L4.23405 12H0.75C0.335787 12 0 12.3358 0 12.75V12.75C0 13.1642 0.335786 13.5 0.75 13.5H4.10278L3.78039 17.184C3.742 17.6227 4.08774 18 4.52808 18V18C4.91724 18 5.24185 17.7026 5.27578 17.3149L5.60962 13.5ZM5.74089 12L11.734 12L12.2591 6H6.26595L5.74089 12Z" fill="black"/>
</svg>
