<svg width="20" height="20" viewBox="0 0 20 20" fill="none" xmlns="http://www.w3.org/2000/svg">
<path fill-rule="evenodd" clip-rule="evenodd" d="M2.00936 1.0434C1.7402 0.958424 1.42794 1.02259 1.23513 1.2037C1.44664 1.00379 1.73834 0.957571 2.00936 1.0434Z" fill="black"/>
<path fill-rule="evenodd" clip-rule="evenodd" d="M1.0026 1.68976C1.01631 1.5112 1.09282 1.35013 1.21018 1.22841C1.09393 1.34965 1.01585 1.52027 1.0026 1.68976ZM1.00039 1.79212V1.74774L1.00019 1.76213C1 1.77215 0.999807 1.78215 1.00039 1.79212Z" fill="black"/>
<path fill-rule="evenodd" clip-rule="evenodd" d="M1.21018 1.22841C1.09393 1.34965 1.01585 1.52027 1.0026 1.68976C1.01631 1.5112 1.09282 1.35013 1.21018 1.22841Z" fill="black"/>
<path fill-rule="evenodd" clip-rule="evenodd" d="M1.23513 1.2037C1.42794 1.02259 1.7402 0.958424 2.00936 1.0434L18.4975 6.58429C19.1675 6.80944 19.1675 7.79225 18.4975 8.01741L2.50684 13.3909V18.2477C2.50684 18.662 2.16961 18.9977 1.75361 18.9977C1.33762 18.9977 1.00039 18.662 1.00039 18.2477V13.2003V12.0174V1.79212V1.74774C1.00039 1.73378 1.00077 1.7199 1.00153 1.70613L1.0026 1.68976C1.01631 1.5112 1.09282 1.35013 1.21018 1.22841C1.2183 1.21998 1.22662 1.21174 1.23513 1.2037ZM2.50684 11.8077L15.9187 7.30085L2.50684 2.79395V11.8077Z" fill="black"/>
</svg>
