<svg width="20" height="20" viewBox="0 0 20 20" fill="none" xmlns="http://www.w3.org/2000/svg">
<path d="M15.6028 6.87028C15.8651 6.60794 16.2832 6.57798 16.563 6.82157C17.3923 7.5435 18.1018 8.39937 18.6566 9.35644C18.8874 9.75454 18.8874 10.2455 18.6566 10.6436C16.9265 13.628 13.6973 15.6356 9.99942 15.6357C9.50532 15.6357 9.01972 15.5994 8.54494 15.5298C7.94609 15.442 7.75376 14.7203 8.18174 14.2923V14.2923C8.36603 14.108 8.62865 14.0283 8.88704 14.0624C9.25107 14.1104 9.62231 14.1357 9.99942 14.1357C12.9904 14.1356 15.6203 12.5894 17.1352 10.2539C17.2353 10.0992 17.2353 9.90075 17.1352 9.74609C16.7224 9.10971 16.227 8.53183 15.6639 8.02791C15.3248 7.72431 15.2809 7.19218 15.6028 6.87028V6.87028Z" fill="black"/>
<path d="M12.614 9.85909C12.7582 9.71485 12.9994 9.796 12.9994 10V10C12.9994 11.6569 11.6563 13 9.99942 13V13C9.79541 13 9.71426 12.7588 9.85851 12.6145L12.614 9.85909Z" fill="black"/>
<path fill-rule="evenodd" clip-rule="evenodd" d="M16.01 2.92893L13.8189 5.11999C12.6421 4.63305 11.3522 4.36426 9.99942 4.36425C6.3018 4.36462 3.07321 6.37217 1.34317 9.35644C1.1125 9.75448 1.1125 10.2455 1.34317 10.6436C2.17738 12.0826 3.36037 13.2938 4.7762 14.1627L2.92852 16.0104C2.63563 16.3033 2.63563 16.7782 2.92852 17.0711C3.22142 17.364 3.69629 17.364 3.98918 17.0711L17.0707 3.98959C17.3636 3.6967 17.3636 3.22182 17.0707 2.92893C16.7778 2.63604 16.3029 2.63604 16.01 2.92893ZM7.41601 11.5229L5.87218 13.0667C4.65443 12.3885 3.62068 11.4196 2.86465 10.2539C2.76462 10.0993 2.76462 9.90071 2.86465 9.74609C4.37939 7.41072 7.00863 5.8646 9.99942 5.86425C10.9258 5.86426 11.8174 6.01265 12.6521 6.28684L11.5224 7.41658C11.0764 7.15202 10.556 7 9.99942 7C8.34272 7.00018 6.99942 8.34325 6.99942 10C6.99942 10.5565 7.15145 11.0769 7.41601 11.5229ZM10.3882 8.55071C10.2646 8.51763 10.1346 8.5 10.0004 8.5C9.17212 8.50018 8.50039 9.17168 8.50039 10C8.50039 10.1342 8.51804 10.2642 8.55113 10.3878L10.3882 8.55071Z" fill="black"/>
</svg>
