<svg width="20" height="20" viewBox="0 0 20 20" fill="none" xmlns="http://www.w3.org/2000/svg">
<path fill-rule="evenodd" clip-rule="evenodd" d="M10.0703 7.07031C11.7271 7.07031 13.0702 8.41355 13.0703 10.0703C13.0703 11.7272 11.7272 13.0703 10.0703 13.0703C8.41355 13.0702 7.07031 11.7271 7.07031 10.0703C7.07042 8.41361 8.41362 7.07042 10.0703 7.07031ZM10.0703 8.57031C9.24204 8.57042 8.57042 9.24204 8.57031 10.0703C8.57031 10.8987 9.24198 11.5702 10.0703 11.5703C10.8987 11.5703 11.5703 10.8987 11.5703 10.0703C11.5702 9.24198 10.8987 8.57031 10.0703 8.57031Z" fill="black"/>
<path fill-rule="evenodd" clip-rule="evenodd" d="M12.5615 4.55859C12.5549 4.55552 12.5476 4.55283 12.541 4.5498C12.8541 4.69417 13.1534 4.86372 13.4346 5.05762L15.8397 3.93816C16.3096 3.71948 16.8686 3.89598 17.1277 4.3448L18.4615 6.65512C18.7208 7.10439 18.5936 7.67738 18.1685 7.97463L16.0078 9.48535C16.0366 9.82409 16.0365 10.1739 16.0078 10.5127L18.1693 12.0262C18.5941 12.3236 18.721 12.8963 18.4618 13.3453L17.1281 15.6555C16.8689 16.1046 16.3093 16.281 15.8393 16.0618L13.4355 14.9404C13.1596 15.1309 12.8663 15.2977 12.5596 15.4404L12.3294 18.0866C12.2845 18.6034 11.8519 19 11.3332 19H8.66623C8.14777 19 7.71529 18.6037 7.67005 18.0873L7.43555 15.4102C7.14412 15.27 6.86649 15.1054 6.60352 14.9219L4.16145 16.0609C3.69157 16.2801 3.1321 16.1038 2.87279 15.6548L1.53823 13.3441C1.27897 12.8951 1.40573 12.3225 1.83025 12.025L4.05078 10.4688C4.02646 10.1541 4.03108 9.84261 4.05176 9.52832L1.83101 7.97387C1.40613 7.67647 1.27913 7.1036 1.53851 6.6545L2.87291 4.34404C3.13217 3.89514 3.69149 3.71879 4.16134 3.9378L6.60352 5.07617C6.59177 5.08437 6.58004 5.09328 6.56836 5.10156C6.85631 4.8976 7.16297 4.71778 7.48535 4.56641C7.46899 4.57408 7.45183 4.58106 7.43555 4.58887L7.67078 1.91245C7.71616 1.39609 8.14859 1 8.66694 1H11.3344C11.853 1 12.2856 1.39644 12.3307 1.91306L12.5615 4.55859ZM8.84863 5.64844C8.06433 5.85549 7.36355 6.26888 6.80859 6.82715L3.91602 5.47852L3.04297 6.99023L4.34473 7.90234L4.39551 7.9375C4.38937 7.95426 4.38391 7.97145 4.37793 7.98828C4.38387 7.97158 4.3904 7.95511 4.39648 7.93848L5.65723 8.82129C5.5555 9.19703 5.50098 9.59208 5.50098 10C5.50098 10.4073 5.55582 10.8016 5.65723 11.1768L3.04199 13.0088L3.91504 14.5205L6.80859 13.1709C7.36344 13.7294 8.06336 14.1433 8.84766 14.3506L9.12695 17.5303H10.873L11.1504 14.3506C11.9353 14.1436 12.6361 13.7305 13.1914 13.1719L16.085 14.5215L16.958 13.0098L14.3428 11.1777C14.4444 10.8022 14.501 10.4077 14.501 10C14.501 9.59232 14.4444 9.19781 14.3428 8.82227L16.7979 7.10352L16.959 6.99121L16.0859 5.47949L13.1914 6.82715C12.6361 6.26873 11.9351 5.85532 11.1504 5.64844L10.874 2.46973H9.12793L8.84863 5.64844Z" fill="black"/>
</svg>
