<svg width="20" height="20" viewBox="0 0 20 20" fill="none" xmlns="http://www.w3.org/2000/svg">
<path d="M14 16.5C15.4864 16.5 16.7198 17.5813 16.958 19H15.4121C15.2059 18.418 14.6527 18 14 18H6C5.34729 18 4.79411 18.418 4.58789 19H3.04199C3.28019 17.5813 4.51363 16.5 6 16.5H14Z" fill="black"/>
<path fill-rule="evenodd" clip-rule="evenodd" d="M14 5C15.6568 5 16.9998 6.34329 17 8V12C17 13.6569 15.6569 15 14 15H6C4.34315 15 3 13.6569 3 12V8C3.00016 6.34329 4.34325 5 6 5H14ZM6 6.5C5.17167 6.5 4.50016 7.17171 4.5 8V12C4.5 12.8284 5.17157 13.5 6 13.5H14C14.8284 13.5 15.5 12.8284 15.5 12V8C15.4998 7.17171 14.8283 6.5 14 6.5H6Z" fill="black"/>
<path d="M16.958 1C16.7201 2.41896 15.4866 3.5 14 3.5H6C4.51343 3.5 3.27994 2.41896 3.04199 1H4.58691C4.79289 1.58248 5.34697 2 6 2H14C14.653 2 15.2071 1.58248 15.4131 1H16.958Z" fill="black"/>
</svg>
