<svg width="20" height="20" viewBox="0 0 20 20" fill="none" xmlns="http://www.w3.org/2000/svg">
<path d="M4.25 9C4.66421 9 5 9.33579 5 9.75C5 10.1642 4.66421 10.5 4.25 10.5C3.83579 10.5 3.5 10.1642 3.5 9.75C3.5 9.33579 3.83579 9 4.25 9Z" fill="black"/>
<path d="M4.25 12C4.66421 12 5 12.3358 5 12.75C5 13.1642 4.66421 13.5 4.25 13.5C3.83579 13.5 3.5 13.1642 3.5 12.75C3.5 12.3358 3.83579 12 4.25 12Z" fill="black"/>
<path d="M4.25 15C4.66421 15 5 15.3358 5 15.75C5 16.1642 4.66421 16.5 4.25 16.5C3.83579 16.5 3.5 16.1642 3.5 15.75C3.5 15.3358 3.83579 15 4.25 15Z" fill="black"/>
<path d="M7.125 9C7.53921 9 7.875 9.33579 7.875 9.75C7.875 10.1642 7.53921 10.5 7.125 10.5C6.71079 10.5 6.375 10.1642 6.375 9.75C6.375 9.33579 6.71079 9 7.125 9Z" fill="black"/>
<path d="M7.125 12C7.53921 12 7.875 12.3358 7.875 12.75C7.875 13.1642 7.53921 13.5 7.125 13.5C6.71079 13.5 6.375 13.1642 6.375 12.75C6.375 12.3358 6.71079 12 7.125 12Z" fill="black"/>
<path d="M7.125 15C7.53921 15 7.875 15.3358 7.875 15.75C7.875 16.1642 7.53921 16.5 7.125 16.5C6.71079 16.5 6.375 16.1642 6.375 15.75C6.375 15.3358 6.71079 15 7.125 15Z" fill="black"/>
<path d="M10 9C10.4142 9 10.75 9.33579 10.75 9.75C10.75 10.1642 10.4142 10.5 10 10.5C9.58579 10.5 9.25 10.1642 9.25 9.75C9.25 9.33579 9.58579 9 10 9Z" fill="black"/>
<path d="M10 12C10.4142 12 10.75 12.3358 10.75 12.75C10.75 13.1642 10.4142 13.5 10 13.5C9.58579 13.5 9.25 13.1642 9.25 12.75C9.25 12.3358 9.58579 12 10 12Z" fill="black"/>
<path d="M10 15C10.4142 15 10.75 15.3358 10.75 15.75C10.75 16.1642 10.4142 16.5 10 16.5C9.58579 16.5 9.25 16.1642 9.25 15.75C9.25 15.3358 9.58579 15 10 15Z" fill="black"/>
<path d="M12.875 9C13.2892 9 13.625 9.33579 13.625 9.75C13.625 10.1642 13.2892 10.5 12.875 10.5C12.4608 10.5 12.125 10.1642 12.125 9.75C12.125 9.33579 12.4608 9 12.875 9Z" fill="black"/>
<path d="M12.875 12C13.2892 12 13.625 12.3358 13.625 12.75C13.625 13.1642 13.2892 13.5 12.875 13.5C12.4608 13.5 12.125 13.1642 12.125 12.75C12.125 12.3358 12.4608 12 12.875 12Z" fill="black"/>
<path d="M12.875 15C13.2892 15 13.625 15.3358 13.625 15.75C13.625 16.1642 13.2892 16.5 12.875 16.5C12.4608 16.5 12.125 16.1642 12.125 15.75C12.125 15.3358 12.4608 15 12.875 15Z" fill="black"/>
<path d="M15.75 9C16.1642 9 16.5 9.33579 16.5 9.75C16.5 10.1642 16.1642 10.5 15.75 10.5C15.3358 10.5 15 10.1642 15 9.75C15 9.33579 15.3358 9 15.75 9Z" fill="black"/>
<path d="M15.75 12C16.1642 12 16.5 12.3358 16.5 12.75C16.5 13.1642 16.1642 13.5 15.75 13.5C15.3358 13.5 15 13.1642 15 12.75C15 12.3358 15.3358 12 15.75 12Z" fill="black"/>
<path d="M15.75 15C16.1642 15 16.5 15.3358 16.5 15.75C16.5 16.1642 16.1642 16.5 15.75 16.5C15.3358 16.5 15 16.1642 15 15.75C15 15.3358 15.3358 15 15.75 15Z" fill="black"/>
<path fill-rule="evenodd" clip-rule="evenodd" d="M19 16V8V6.5V5.5C19 3.84315 17.6569 2.5 16 2.5H15.5V1.75C15.5 1.33579 15.1642 1 14.75 1C14.3358 1 14 1.33579 14 1.75V2.5H6V1.75C6 1.33579 5.66421 1 5.25 1C4.83579 1 4.5 1.33579 4.5 1.75V2.5H4C2.34315 2.5 1 3.84315 1 5.5V6.5V8V16C1 17.6569 2.34315 19 4 19H16C17.6569 19 19 17.6569 19 16ZM2.5 6.5V5.5C2.5 4.67157 3.17157 4 4 4H4.5V4.75C4.5 5.16421 4.83579 5.5 5.25 5.5C5.66421 5.5 6 5.16421 6 4.75V4H14V4.75C14 5.16421 14.3358 5.5 14.75 5.5C15.1642 5.5 15.5 5.16421 15.5 4.75V4H16C16.8284 4 17.5 4.67157 17.5 5.5V6.5H2.5ZM2.5 16V8H17.5V16C17.5 16.8284 16.8284 17.5 16 17.5H4C3.17157 17.5 2.5 16.8284 2.5 16Z" fill="black"/>
</svg>
