<svg width="20" height="20" viewBox="0 0 20 20" fill="none" xmlns="http://www.w3.org/2000/svg">
<path fill-rule="evenodd" clip-rule="evenodd" d="M4 1C5.65685 1 7 2.34315 7 4C7 5.39752 6.04342 6.56799 4.75 6.90137V12.75C4.75 14.1307 5.86929 15.25 7.25 15.25H13.0977C13.4309 13.9565 14.6024 13 16 13C17.6569 13 19 14.3431 19 16C19 17.6569 17.6569 19 16 19C14.6024 19 13.4309 18.0435 13.0977 16.75H7.25C5.04086 16.75 3.25 14.9591 3.25 12.75V6.90137C1.95658 6.56799 1 5.39752 1 4C1 2.34315 2.34315 1 4 1ZM16 14.501C15.1721 14.501 14.501 15.1721 14.501 16C14.501 16.828 15.1721 17.499 16 17.499C16.8279 17.499 17.499 16.8279 17.499 16C17.499 15.1721 16.8279 14.501 16 14.501ZM4 2.50098C3.17205 2.50099 2.50099 3.17205 2.50098 4C2.50098 4.82796 3.17204 5.49901 4 5.49902C4.82797 5.49902 5.49902 4.82797 5.49902 4C5.49901 3.17204 4.82796 2.50098 4 2.50098Z" fill="black"/>
</svg>
