<svg width="20" height="20" viewBox="0 0 20 20" fill="none" xmlns="http://www.w3.org/2000/svg">
<path fill-rule="evenodd" clip-rule="evenodd" d="M9.24991 9.29294C9.24764 9.29294 9.25217 9.29292 9.24991 9.29294V9.29294Z" fill="black"/>
<path fill-rule="evenodd" clip-rule="evenodd" d="M16.543 10.7499C16.5408 10.75 16.5453 10.7499 16.543 10.7499V10.7499Z" fill="black"/>
<path fill-rule="evenodd" clip-rule="evenodd" d="M10.7499 9.29294C10.7499 9.29047 10.75 9.29541 10.7499 9.29294V9.29294Z" fill="black"/>
<path fill-rule="evenodd" clip-rule="evenodd" d="M13.0048 4.65133C13.2977 4.35844 13.2977 3.88367 13.0048 3.59078L10.7069 1.29293C10.3164 0.902421 9.68339 0.902413 9.29287 1.29293L6.99502 3.59078C6.70213 3.88368 6.70213 4.35844 6.99502 4.65133C7.28792 4.94422 7.76268 4.94422 8.05557 4.65133L9.24991 3.45699V9.29294L3.45695 9.24998L4.65128 8.05564C4.94415 7.76277 4.9441 7.28799 4.65128 6.99509C4.35839 6.7022 3.88363 6.7022 3.59074 6.99509L1.29289 9.29294C0.902375 9.68347 0.902367 10.3165 1.29289 10.707L3.59074 13.0049C3.88363 13.2978 4.35839 13.2978 4.65128 13.0049C4.94417 12.712 4.94418 12.2372 4.65128 11.9443L3.45695 10.75L9.24991 10.707L9.24994 16.543L8.05561 15.3487C7.76274 15.0558 7.28796 15.0559 6.99506 15.3487C6.70217 15.6416 6.70216 16.1163 6.99506 16.4092L9.29291 18.7071C9.68344 19.0976 10.3165 19.0976 10.707 18.7071L13.0048 16.4092C13.2977 16.1163 13.2977 15.6416 13.0048 15.3487C12.7119 15.0558 12.2372 15.0558 11.9443 15.3487L10.7499 16.543V10.7499H16.543L15.3487 11.9443C15.0558 12.2371 15.0559 12.7119 15.3487 13.0048C15.6416 13.2977 16.1163 13.2977 16.4092 13.0048L18.7071 10.707C19.0976 10.3165 19.0976 9.68343 18.7071 9.29291L16.4092 6.99506C16.1163 6.70217 15.6416 6.70217 15.3487 6.99506C15.0558 7.28796 15.0558 7.76272 15.3487 8.05561L16.543 9.24994L10.7499 9.29294L10.7499 3.45699L11.9442 4.65133C12.2371 4.9442 12.7119 4.94415 13.0048 4.65133Z" fill="black"/>
</svg>
